<svg width="179" height="93" viewBox="0 0 179 93" fill="none" xmlns="http://www.w3.org/2000/svg">
<path d="M26.174 42.3307C26.8418 42.2943 27.5098 42.3995 28.1341 42.6394C28.7584 42.8792 29.325 43.2484 29.7965 43.7227C30.7178 44.7701 31.1906 46.1376 31.113 47.5304V54.6445H26.8487V48.0954C26.8656 47.818 26.8261 47.5401 26.7326 47.2784C26.6392 47.0166 26.4937 46.7765 26.3049 46.5726C26.1078 46.3869 25.8751 46.2431 25.6209 46.1499C25.3666 46.0566 25.0962 46.0158 24.8257 46.0299C24.5552 46.016 24.2847 46.057 24.0305 46.1504C23.7762 46.2439 23.5436 46.3879 23.3465 46.5737C23.1578 46.7777 23.0123 47.0178 22.9188 47.2795C22.8254 47.5413 22.7859 47.8192 22.8027 48.0966V54.6457H18.5385V48.0966C18.5553 47.8201 18.5169 47.5429 18.4253 47.2815C18.3338 47.02 18.191 46.7794 18.0053 46.5737C17.811 46.3871 17.5803 46.2425 17.3276 46.1489C17.075 46.0554 16.8057 46.0149 16.5367 46.0299C16.2626 46.0143 15.9882 46.0544 15.7301 46.1479C15.472 46.2413 15.2356 46.3862 15.0351 46.5737C14.8463 46.7777 14.7008 47.0178 14.6074 47.2795C14.5139 47.5413 14.4744 47.8192 14.4913 48.0966V54.6457H10.2271V42.4393H14.4913V44.0494C14.8746 43.5216 15.378 43.0927 15.9599 42.7979C16.6039 42.4748 17.3168 42.3129 18.0372 42.326C18.876 42.3118 19.7042 42.515 20.4412 42.9158C21.1386 43.3011 21.7149 43.8729 22.1056 44.5672C22.5422 43.8986 23.1312 43.3432 23.8243 42.9465C24.538 42.5339 25.3497 42.3212 26.174 42.3307ZM32.2914 48.5319C32.2662 47.3932 32.5005 46.2637 32.9767 45.229C33.3851 44.3408 34.035 43.5855 34.8523 43.0491C35.64 42.542 36.559 42.2771 37.4958 42.2871C38.2515 42.267 38.9999 42.4391 39.6709 42.7872C40.2576 43.0987 40.7473 43.5656 41.0865 44.1367V42.4393H45.3507V54.6457H41.0817V52.9483C40.7408 53.5213 40.2475 53.9885 39.6568 54.2977C38.9887 54.6434 38.2443 54.8154 37.4922 54.7979C36.5567 54.8072 35.639 54.5423 34.8523 54.0359C34.0353 53.4975 33.3868 52.7394 32.9815 51.8489C32.5039 50.8095 32.268 49.6755 32.2914 48.5319ZM41.0806 48.5319C41.1188 47.8549 40.8882 47.1901 40.4389 46.6823C40.2386 46.4648 39.9945 46.2922 39.7226 46.1759C39.4508 46.0596 39.1574 46.0022 38.8617 46.0075C38.5652 45.9997 38.2703 46.0549 37.9967 46.1693C37.723 46.2838 37.4767 46.455 37.274 46.6716C36.828 47.1851 36.6014 47.8531 36.6429 48.5319C36.6062 49.21 36.8322 49.8763 37.274 50.3921C37.4734 50.6142 37.7187 50.7905 37.9927 50.9088C38.2668 51.0271 38.5633 51.0847 38.8617 51.0774C39.1574 51.0828 39.4508 51.0254 39.7226 50.9091C39.9945 50.7928 40.2386 50.6202 40.4389 50.4027C40.8909 49.8879 41.1206 49.2158 41.0806 48.5319ZM51.5931 44.5944C52.0461 43.9235 52.6404 43.3599 53.3342 42.9429C53.997 42.5423 54.7573 42.3317 55.5318 42.3343V46.8734H54.3345C53.6041 46.8172 52.876 47.0088 52.2678 47.4171C52.0207 47.6607 51.8317 47.957 51.7148 48.2837C51.598 48.6105 51.5564 48.9594 51.5931 49.3045V54.6351H47.3289V42.4393H51.5931V44.5944ZM64.2372 54.6457L60.8647 49.6419V54.6457H56.6005V38.5454H60.8647V47.2272L64.2372 42.4404H69.3496L64.5415 48.5743L69.4369 54.6445L64.2372 54.6457ZM81.8863 48.4068C81.8864 48.7413 81.8647 49.0754 81.8214 49.4071H73.7483C73.7449 49.9548 73.9421 50.4848 74.3027 50.897C74.4669 51.0596 74.6626 51.187 74.8779 51.2711C75.0931 51.3553 75.3233 51.3946 75.5543 51.3865C75.877 51.4031 76.1971 51.3195 76.4705 51.1472C76.744 50.9749 76.9575 50.7223 77.0818 50.4239H81.6292C81.4475 51.2513 81.071 52.0233 80.531 52.6758C79.9744 53.3456 79.2708 53.8781 78.4749 54.2317C77.6128 54.6164 76.6775 54.8096 75.7336 54.7979C74.6169 54.8186 73.5131 54.5565 72.5251 54.0359C71.5985 53.5373 70.8355 52.7821 70.3275 51.8607C69.7786 50.8387 69.5051 49.6915 69.5336 48.5319C69.5042 47.3768 69.7741 46.2337 70.3168 45.2137C70.8213 44.2959 71.5809 43.544 72.5038 43.0491C73.4993 42.5268 74.6107 42.2646 75.7347 42.2871C76.8455 42.2653 77.9443 42.5194 78.9326 43.0267C79.8485 43.5082 80.6043 44.246 81.1078 45.15C81.6478 46.1488 81.9163 47.2718 81.8863 48.4068ZM77.5348 47.3452C77.546 47.1142 77.5049 46.8836 77.4144 46.6707C77.3239 46.4579 77.1864 46.2683 77.0122 46.1161C76.6463 45.8124 76.1816 45.6537 75.7064 45.6702C75.2412 45.6511 74.785 45.802 74.423 46.0948C74.0653 46.4224 73.8343 46.8655 73.7707 47.3464L77.5348 47.3452ZM90.3747 51.022V54.6551H88.5239C85.4058 54.6551 83.8468 53.1103 83.8468 50.0205V45.9957H82.3464V42.4499H83.848V39.4914H88.1335V42.4499H90.3523V45.9957H88.1335V50.0854C88.121 50.2144 88.1349 50.3446 88.1742 50.468C88.2136 50.5915 88.2775 50.7057 88.3623 50.8038C88.5836 50.9704 88.8593 51.0478 89.1349 51.0208L90.3747 51.022ZM97.0795 54.8073C96.069 54.8253 95.0655 54.6366 94.1305 54.2529C93.3284 53.9263 92.6243 53.3981 92.0863 52.7194C91.5927 52.0917 91.3007 51.3293 91.2488 50.5325H95.3774C95.399 50.7144 95.4586 50.8898 95.5522 51.0473C95.6459 51.2047 95.7716 51.3408 95.9212 51.4466C96.254 51.6728 96.6502 51.7872 97.0524 51.7734C97.3435 51.7889 97.6322 51.713 97.8781 51.5564C97.9725 51.4953 98.0498 51.4114 98.1031 51.3124C98.1563 51.2134 98.1836 51.1025 98.1824 50.9901C98.182 50.839 98.1333 50.692 98.0433 50.5706C97.9533 50.4492 97.8268 50.3597 97.6823 50.3154C97.1462 50.1099 96.5938 49.9497 96.0309 49.8365C95.2914 49.6974 94.5641 49.5002 93.8557 49.2467C93.27 49.0263 92.7497 48.661 92.3434 48.1851C91.8901 47.6184 91.6616 46.9044 91.7017 46.1798C91.6951 45.479 91.9007 44.7927 92.2915 44.211C92.7242 43.5895 93.3237 43.1029 94.0208 42.8073C94.8901 42.4378 95.8286 42.2596 96.7728 42.2847C98.1291 42.2081 99.4669 42.6274 100.537 43.4643C101.45 44.2466 102.02 45.3558 102.125 46.5537H98.2756C98.2244 46.1995 98.0421 45.8775 97.7649 45.6513C97.4519 45.4273 97.0722 45.3163 96.6879 45.3363C96.4094 45.318 96.1321 45.3864 95.894 45.5322C95.8065 45.5926 95.7357 45.6741 95.6881 45.7691C95.6405 45.8642 95.6176 45.9697 95.6215 46.0759C95.6261 46.2247 95.6767 46.3685 95.7662 46.4874C95.8558 46.6063 95.9799 46.6946 96.1217 46.7401C96.6417 46.9497 97.181 47.1077 97.7318 47.2119C98.4838 47.3621 99.2223 47.5731 99.94 47.843C100.54 48.0836 101.07 48.4685 101.485 48.9636C101.955 49.5592 102.191 50.3059 102.149 51.0633C102.156 51.752 101.939 52.4241 101.529 52.9778C101.072 53.5717 100.463 54.0304 99.7655 54.3048C98.9128 54.6495 97.999 54.8173 97.0795 54.7979V54.8073Z" fill="white"/>
<path d="M119.817 48.5303C119.791 47.3805 120.06 46.2432 120.6 45.2275C121.102 44.3051 121.862 43.5492 122.787 43.0523C123.775 42.5317 124.879 42.2695 125.995 42.2903C127.409 42.2447 128.795 42.6949 129.912 43.563C131.001 44.4628 131.728 45.7266 131.957 47.1207H127.426C127.353 46.774 127.16 46.464 126.882 46.2446C126.604 46.0252 126.258 45.9103 125.903 45.9199C125.652 45.9132 125.404 45.9707 125.181 46.0869C124.958 46.2031 124.769 46.3742 124.631 46.584C124.28 47.1703 124.115 47.8495 124.159 48.5315C124.116 49.2168 124.28 49.8991 124.631 50.4896C124.767 50.7019 124.956 50.8755 125.179 50.9936C125.402 51.1118 125.651 51.1706 125.903 51.1644C126.258 51.1784 126.606 51.0655 126.885 50.8461C127.164 50.6267 127.356 50.3151 127.426 49.9671H131.951C131.716 51.3557 130.991 52.6139 129.907 53.5129C128.793 54.3874 127.406 54.8417 125.991 54.7963C124.874 54.8171 123.77 54.5549 122.782 54.0343C121.857 53.5374 121.097 52.7815 120.595 51.8591C120.055 50.8345 119.787 49.6883 119.817 48.5303ZM138.939 54.7963C137.802 54.8153 136.677 54.5535 135.665 54.0343C134.715 53.5408 133.926 52.7861 133.391 51.8591C132.822 50.8439 132.537 49.694 132.566 48.5303C132.54 47.3737 132.829 46.2319 133.403 45.2275C133.944 44.3014 134.737 43.5473 135.688 43.0523C136.7 42.5331 137.825 42.2713 138.963 42.2903C140.1 42.2713 141.225 42.5331 142.237 43.0523C143.189 43.5473 143.981 44.3014 144.522 45.2275C145.096 46.2319 145.386 47.3737 145.36 48.5303C145.386 49.6918 145.096 50.8385 144.522 51.8485C143.982 52.7814 143.186 53.5403 142.229 54.0355C141.211 54.5542 140.081 54.8155 138.939 54.7963ZM138.939 51.0983C139.221 51.1035 139.5 51.0467 139.758 50.932C140.015 50.8172 140.244 50.6473 140.429 50.4342C140.86 49.8969 141.073 49.2175 141.027 48.5303C141.073 47.8483 140.859 47.1743 140.429 46.643C140.246 46.4344 140.02 46.268 139.766 46.1554C139.513 46.0428 139.238 45.9865 138.96 45.9907C138.684 45.9862 138.411 46.0423 138.159 46.155C137.907 46.2677 137.683 46.4343 137.502 46.643C137.078 47.1768 136.867 47.8497 136.913 48.5303C136.864 49.2159 137.065 49.8959 137.479 50.4448C137.657 50.6571 137.881 50.8263 138.134 50.9399C138.387 51.0534 138.662 51.1084 138.939 51.1007V51.0983ZM162.592 42.3304C163.26 42.294 163.928 42.3992 164.552 42.6391C165.177 42.879 165.743 43.2481 166.215 43.7223C167.136 44.7697 167.609 46.1372 167.531 47.53V54.6395H163.267V48.0903C163.284 47.8129 163.244 47.535 163.151 47.2733C163.058 47.0115 162.912 46.7715 162.723 46.5675C162.526 46.3825 162.293 46.2393 162.039 46.1467C161.785 46.0541 161.514 46.0138 161.244 46.0284C160.974 46.0144 160.703 46.0554 160.449 46.1489C160.195 46.2424 159.962 46.3864 159.765 46.5722C159.576 46.7762 159.431 47.0163 159.337 47.278C159.244 47.5397 159.204 47.8177 159.221 48.0951V54.6395H154.956V48.0903C154.973 47.8138 154.934 47.5367 154.843 47.2752C154.751 47.0137 154.608 46.7731 154.423 46.5675C154.228 46.3808 153.997 46.2362 153.745 46.1427C153.492 46.0491 153.223 46.0086 152.954 46.0237C152.68 46.008 152.405 46.0481 152.147 46.1416C151.889 46.2351 151.653 46.38 151.452 46.5675C151.264 46.7715 151.118 47.0115 151.025 47.2733C150.931 47.535 150.892 47.8129 150.908 48.0903V54.6395H146.645V42.4389H150.91V44.049C151.292 43.5219 151.793 43.0929 152.374 42.7975C153.018 42.4745 153.73 42.3126 154.451 42.3257C155.29 42.3114 156.118 42.5146 156.855 42.9154C157.552 43.3007 158.129 43.8725 158.519 44.5669C158.956 43.8983 159.545 43.3428 160.238 42.9461C160.953 42.5327 161.766 42.32 162.592 42.3304Z" fill="white"/>
<path d="M111.039 42.6421C112.226 42.6421 113.386 42.9941 114.373 43.6536C115.36 44.3131 116.13 45.2504 116.584 46.3471C117.038 47.4438 117.157 48.6505 116.925 49.8148C116.694 50.979 116.122 52.0484 115.283 52.8878C114.443 53.7271 113.374 54.2988 112.21 54.5303C111.046 54.7619 109.839 54.6431 108.742 54.1888C107.645 53.7345 106.708 52.9653 106.049 51.9783C105.389 50.9913 105.037 49.8309 105.037 48.6439C105.037 47.0521 105.669 45.5255 106.795 44.4C107.921 43.2744 109.447 42.6421 111.039 42.6421Z" fill="white"/>
</svg>
