<svg width="23" height="23" viewBox="0 0 23 23" fill="none" xmlns="http://www.w3.org/2000/svg">
<path d="M11.4989 6.02868C14.5223 6.02868 17.0177 8.52418 17.0177 11.5476C17.0177 14.619 14.5223 17.0665 11.4989 17.0665C8.42748 17.0665 5.97997 14.619 5.97997 11.5476C5.97997 8.52418 8.42748 6.02868 11.4989 6.02868ZM11.4989 15.1468C13.4665 15.1468 15.0501 13.5632 15.0501 11.5476C15.0501 9.57997 13.4665 7.99629 11.4989 7.99629C9.48327 7.99629 7.89958 9.57997 7.89958 11.5476C7.89958 13.5632 9.53126 15.1468 11.4989 15.1468ZM18.5054 5.83672C18.5054 6.55658 17.9296 7.13246 17.2097 7.13246C16.4899 7.13246 15.914 6.55658 15.914 5.83672C15.914 5.11687 16.4899 4.54098 17.2097 4.54098C17.9296 4.54098 18.5054 5.11687 18.5054 5.83672ZM22.1527 7.13246C22.2487 8.9081 22.2487 14.235 22.1527 16.0107C22.0567 17.7383 21.6728 19.226 20.4251 20.5218C19.1773 21.7695 17.6416 22.1534 15.914 22.2494C14.1383 22.3454 8.8114 22.3454 7.03576 22.2494C5.30811 22.1534 3.82041 21.7695 2.52467 20.5218C1.27692 19.226 0.892994 17.7383 0.797014 16.0107C0.701033 14.235 0.701033 8.9081 0.797014 7.13246C0.892994 5.40481 1.27692 3.86912 2.52467 2.62137C3.82041 1.37362 5.30811 0.989698 7.03576 0.893718C8.8114 0.797737 14.1383 0.797737 15.914 0.893718C17.6416 0.989698 19.1773 1.37362 20.4251 2.62137C21.6728 3.86912 22.0567 5.40481 22.1527 7.13246ZM19.8492 17.8823C20.4251 16.4906 20.2811 13.1313 20.2811 11.5476C20.2811 10.0119 20.4251 6.65256 19.8492 5.21285C19.4653 4.30103 18.7454 3.53319 17.8336 3.19725C16.3939 2.62137 13.0346 2.76534 11.4989 2.76534C9.91518 2.76534 6.55585 2.62137 5.16413 3.19725C4.20433 3.58118 3.48447 4.30103 3.10055 5.21285C2.52467 6.65256 2.66864 10.0119 2.66864 11.5476C2.66864 13.1313 2.52467 16.4906 3.10055 17.8823C3.48447 18.8421 4.20433 19.562 5.16413 19.9459C6.55585 20.5218 9.91518 20.3778 11.4989 20.3778C13.0346 20.3778 16.3939 20.5218 17.8336 19.9459C18.7454 19.562 19.5132 18.8421 19.8492 17.8823Z" fill="white"/>
</svg>
