<svg width="34" height="35" viewBox="0 0 34 35" fill="none" xmlns="http://www.w3.org/2000/svg">
<g clip-path="url(#clip0_82_43800)">
<rect y="0.69043" width="34" height="34" rx="7" fill="url(#paint0_linear_82_43800)"/>
<path d="M24.5005 17.6908C24.5005 17.8565 24.4346 18.0155 24.3174 18.1327C24.2002 18.2499 24.0413 18.3158 23.8755 18.3158H11.6341L16.1927 22.8736C16.2507 22.9317 16.2968 23.0006 16.3282 23.0765C16.3597 23.1523 16.3758 23.2337 16.3758 23.3158C16.3758 23.3979 16.3597 23.4792 16.3282 23.5551C16.2968 23.631 16.2507 23.6999 16.1927 23.758C16.1346 23.816 16.0657 23.8621 15.9898 23.8935C15.9139 23.9249 15.8326 23.9411 15.7505 23.9411C15.6684 23.9411 15.5871 23.9249 15.5112 23.8935C15.4353 23.8621 15.3664 23.816 15.3083 23.758L9.6833 18.133C9.62519 18.0749 9.57909 18.006 9.54764 17.9301C9.51619 17.8542 9.5 17.7729 9.5 17.6908C9.5 17.6086 9.51619 17.5273 9.54764 17.4514C9.57909 17.3756 9.62519 17.3066 9.6833 17.2486L15.3083 11.6236C15.4256 11.5063 15.5846 11.4404 15.7505 11.4404C15.9163 11.4404 16.0754 11.5063 16.1927 11.6236C16.31 11.7409 16.3758 11.8999 16.3758 12.0658C16.3758 12.2316 16.31 12.3907 16.1927 12.508L11.6341 17.0658H23.8755C24.0413 17.0658 24.2002 17.1316 24.3174 17.2488C24.4346 17.366 24.5005 17.525 24.5005 17.6908Z" fill="white"/>
<rect x="0.5" y="1.19043" width="33" height="33" rx="6.5" stroke="#EEEEEE" stroke-opacity="0.1"/>
</g>
<defs>
<linearGradient id="paint0_linear_82_43800" x1="-1.5815" y1="2.64342" x2="35.5815" y2="32.7374" gradientUnits="userSpaceOnUse">
<stop stop-color="#242424"/>
<stop offset="1" stop-color="#101010"/>
</linearGradient>
<clipPath id="clip0_82_43800">
<rect y="0.69043" width="34" height="34" rx="7" fill="white"/>
</clipPath>
</defs>
</svg>
