<svg width="17" height="17" viewBox="0 0 17 17" fill="none" xmlns="http://www.w3.org/2000/svg">
<path d="M3.9256 16.5132H0.553156V5.6706H3.9256V16.5132ZM2.22125 4.22008C1.16962 4.22008 0.299316 3.31351 0.299316 2.22563C0.299316 1.17401 1.16962 0.303697 2.22125 0.303697C3.30913 0.303697 4.17944 1.17401 4.17944 2.22563C4.17944 3.31351 3.30913 4.22008 2.22125 4.22008ZM16.5088 16.5132H13.1726V11.2551C13.1726 9.98587 13.1364 8.39031 11.3957 8.39031C9.65513 8.39031 9.40129 9.73203 9.40129 11.1463V16.5132H6.02884V5.6706H9.25624V7.15737H9.2925C9.76392 6.32333 10.8518 5.41676 12.4836 5.41676C15.8923 5.41676 16.5451 7.66505 16.5451 10.5661V16.5132H16.5088Z" fill="white"/>
</svg>
