<svg width="940" height="180" viewBox="0 0 940 180" fill="none" xmlns="http://www.w3.org/2000/svg">
<path d="M180.56 25.17L32.08 173.65C20.43 185.28 0.540039 177.04 0.540039 160.58V23.22C0.540039 10.9 10.52 0.920013 22.84 0.920013H98.99C78.33 21.58 53.86 46.04 33.19 66.71C28.38 71.53 28.38 79.34 33.19 84.15L33.36 84.32C38.18 89.13 45.98 89.13 50.8 84.32L128.02 7.10001C131.97 3.15001 137.34 0.920013 142.93 0.920013H170.51C183.17 0.920013 189.51 16.23 180.56 25.18V25.17Z" fill="url(#paint0_linear_3108_90)"/>
<path d="M86.3401 137.08L121.56 101.86L181.74 162.04C188.03 168.33 183.58 179.09 174.68 179.09H137.73C131.73 179.09 125.97 176.71 121.73 172.46L86.3401 137.07V137.08Z" fill="url(#paint1_linear_3108_90)"/>
<path d="M353.87 0.910004H321.66C302.18 22.22 270.61 55.51 260.83 66.45V0.910004H234.48V142.94H260.83V92.55L276.9 77.5L324.22 142.94H356.27L295.43 60.24L353.87 0.910004Z" fill="white"/>
<path d="M412.1 0.910004L363.06 142.94H389.33L401.85 106.77H455.38L468.45 142.94H496.55L445.4 0.910004H412.1ZM407.77 84.7C416.82 56.93 424.34 34.05 427.83 20.72H428.04C431.35 32.82 438.12 52.21 449.39 84.7H407.78H407.77Z" fill="white"/>
<path d="M539.39 0.910004H512.75V142.94H539.39V0.910004Z" fill="white"/>
<path d="M672.46 22.66V0.910004H564.96V22.99H642.04L561.18 123.19V142.95H676.04V120.87H593.8L672.46 22.66Z" fill="white"/>
<path d="M723.31 79.93H792.16V57.85H723.31V22.99H795.28V0.910004H697.39V142.95H799.15V120.87H723.31V79.93Z" fill="white"/>
<path d="M915.07 0.910004V47.58C915.07 70.85 915.01 94.74 916.53 110.73H916.18C909.16 95.27 872.42 33.25 853.78 0.910004H820.22V142.94H844.76V95.05C844.76 69.54 844.53 42.12 843.51 28.4H843.86C851.54 44.65 891.26 114.12 907.72 142.93H939.48V0.899994H915.08L915.07 0.910004Z" fill="white"/>
<path d="M250.76 170.7C250.76 167.16 250.8 163.57 250.88 161.57H250.78C249.96 164.66 246.88 172.83 244.7 178.82H242.44C240.79 173.95 237.6 164.78 236.74 161.53H236.66C236.81 163.73 236.87 167.96 236.87 171.22V178.81H234.49V159.77H238.26C240.42 165.68 243.07 173.3 243.72 175.73H243.77C244.22 173.9 247.34 165.53 249.58 159.77H253.24V178.81H250.77V170.69L250.76 170.7Z" fill="white"/>
<path d="M263.58 173.1L261.53 178.81H259.02L265.8 159.77H268.91L275.98 178.81H273.29L271.18 173.1H263.58ZM270.53 170.94C268.71 165.93 267.72 163.28 267.31 161.82H267.28C266.81 163.44 265.7 166.65 264.24 170.94H270.54H270.53Z" fill="white"/>
<path d="M284.23 170.43V178.82H281.73V159.78H289.17C293.08 159.78 295.17 161.9 295.17 164.88C295.17 167.35 293.75 168.85 291.92 169.36C293.47 169.78 294.83 170.94 294.83 174.24V175.06C294.83 176.37 294.77 178.03 295.09 178.83H292.63C292.28 178.01 292.31 176.52 292.31 174.74V174.33C292.31 171.62 291.54 170.44 288.13 170.44H284.24L284.23 170.43ZM284.23 168.3H288.37C291.28 168.3 292.56 167.21 292.56 165.07C292.56 163.05 291.24 161.9 288.65 161.9H284.23V168.31V168.3Z" fill="white"/>
<path d="M302.17 159.77H304.67V169.11C306.09 167.64 310.92 162.86 313.93 159.77H317.07L308.88 167.8L317.47 178.81H314.41L307.11 169.43L304.67 171.63V178.8H302.17V159.76V159.77Z" fill="white"/>
<path d="M334.59 169.91H325.12V176.65H335.52L335.19 178.81H322.64V159.77H335.04V161.93H325.11V167.74H334.58V169.9L334.59 169.91Z" fill="white"/>
<path d="M346.37 161.94H340.22V159.78H355.07V161.94H348.91V178.82H346.37V161.94Z" fill="white"/>
<path d="M363.05 159.77V178.81H360.53V159.77H363.05Z" fill="white"/>
<path d="M370.95 178.82V159.78H374.29C377.02 164.23 382.96 173.7 384.03 175.77H384.07C383.89 173.33 383.9 170.32 383.9 167.21V159.77H386.29V178.81H383.15C380.63 174.68 374.44 164.49 373.24 162.35H373.2C373.34 164.52 373.34 167.75 373.34 171.18V178.81H370.94L370.95 178.82Z" fill="white"/>
<path d="M409.39 178.82H407.48C407.35 178.46 407.28 177.62 407.24 176.27C406.42 177.61 404.8 179.07 401.4 179.07C395.98 179.07 393.1 174.96 393.1 169.61C393.1 163.98 396.19 159.75 401.86 159.75C406.23 159.75 408.98 162.11 409.51 165.47H407.02C406.38 163.37 404.87 161.82 401.81 161.82C397.45 161.82 395.72 165.3 395.72 169.48C395.72 173.35 397.47 176.96 401.71 176.96C405.95 176.96 406.97 174.16 406.97 170.98V170.78H401.68V168.64H409.4V178.79L409.39 178.82Z" fill="white"/>
<path d="M442.8 166.91L438 173.96C435.76 177.25 434.17 179.09 430.72 179.09C427.27 179.09 425.37 176.56 425.37 174.13C425.37 171.7 426.73 169.99 430.46 168.06C432.87 166.73 434.23 165.85 434.23 164.1C434.23 162.81 433.45 161.58 431.88 161.58C430.43 161.58 429.44 162.53 429.44 164.19C429.44 165.37 430.32 166.41 431.72 167.73L443.01 178.81H439.8L429.74 168.9C428.23 167.45 427.2 166.14 427.2 164.3C427.2 161.89 428.89 159.76 431.91 159.76C434.69 159.76 436.44 161.73 436.44 164.07C436.44 166.15 435.1 167.45 431.75 169.31C428.51 170.99 427.84 172.32 427.84 173.88C427.84 175.54 429.16 176.99 430.91 176.99C433.01 176.99 434.2 176.13 436.57 172.56L440.3 166.9H442.82L442.8 166.91Z" fill="white"/>
<path d="M471.09 169.91H461.62V176.65H472.02L471.69 178.81H459.14V159.77H471.54V161.93H461.61V167.74H471.08V169.9L471.09 169.91Z" fill="white"/>
<path d="M483.6 178.82L476.67 159.78H479.38L482.73 169.27C483.71 172.06 484.69 174.88 485.11 176.62H485.16C485.56 175.06 486.64 172.12 487.64 169.36L491.13 159.78H493.74L486.57 178.82H483.59H483.6Z" fill="white"/>
<path d="M511.3 169.91H501.83V176.65H512.23L511.9 178.81H499.35V159.77H511.75V161.93H501.82V167.74H511.29V169.9L511.3 169.91Z" fill="white"/>
<path d="M518.4 178.82V159.78H521.74C524.47 164.23 530.41 173.7 531.48 175.77H531.52C531.34 173.33 531.35 170.32 531.35 167.21V159.77H533.74V178.81H530.6C528.08 174.68 521.89 164.49 520.69 162.35H520.65C520.79 164.52 520.79 167.75 520.79 171.18V178.81H518.39L518.4 178.82Z" fill="white"/>
<path d="M545.58 161.94H539.43V159.78H554.28V161.94H548.12V178.82H545.58V161.94Z" fill="white"/>
<path d="M561.13 173.59C561.64 175.84 563.18 177.06 565.9 177.06C568.83 177.06 569.99 175.69 569.99 173.91C569.99 172.03 569.06 170.97 565.3 170.06C560.87 168.98 559.34 167.47 559.34 164.83C559.34 162.04 561.4 159.77 565.59 159.77C570.06 159.77 571.9 162.36 572.16 164.82H569.63C569.29 163.15 568.25 161.78 565.51 161.78C563.22 161.78 561.94 162.81 561.94 164.6C561.94 166.39 563 167.06 566.29 167.85C571.65 169.15 572.59 171.24 572.59 173.65C572.59 176.68 570.35 179.05 565.75 179.05C561.15 179.05 558.99 176.47 558.6 173.59H561.13Z" fill="white"/>
<path d="M605.13 170.7C605.13 167.16 605.17 163.57 605.25 161.57H605.15C604.33 164.66 601.25 172.83 599.07 178.82H596.81C595.16 173.95 591.97 164.78 591.11 161.53H591.03C591.18 163.73 591.24 167.96 591.24 171.22V178.81H588.86V159.77H592.63C594.79 165.68 597.44 173.3 598.09 175.73H598.14C598.59 173.9 601.71 165.53 603.95 159.77H607.61V178.81H605.14V170.69L605.13 170.7Z" fill="white"/>
<path d="M617.95 173.1L615.9 178.81H613.39L620.17 159.77H623.28L630.35 178.81H627.66L625.55 173.1H617.95ZM624.91 170.94C623.09 165.93 622.1 163.28 621.69 161.82H621.66C621.19 163.44 620.08 166.65 618.62 170.94H624.92H624.91Z" fill="white"/>
<path d="M636.1 178.82V159.78H639.44C642.17 164.23 648.11 173.7 649.18 175.77H649.22C649.04 173.33 649.05 170.32 649.05 167.21V159.77H651.44V178.81H648.3C645.78 174.68 639.59 164.49 638.39 162.35H638.35C638.49 164.52 638.49 167.75 638.49 171.18V178.81H636.09L636.1 178.82Z" fill="white"/>
<path d="M661.86 173.1L659.81 178.81H657.3L664.08 159.77H667.19L674.26 178.81H671.57L669.46 173.1H661.86ZM668.81 170.94C666.99 165.93 666 163.28 665.59 161.82H665.56C665.09 163.44 663.98 166.65 662.52 170.94H668.82H668.81Z" fill="white"/>
<path d="M695.05 178.82H693.14C693.01 178.46 692.94 177.62 692.9 176.28C692.08 177.61 690.46 179.08 687.07 179.08C681.65 179.08 678.78 174.97 678.78 169.63C678.78 164.01 681.86 159.78 687.53 159.78C691.89 159.78 694.64 162.14 695.18 165.5H692.69C692.05 163.4 690.54 161.86 687.48 161.86C683.12 161.86 681.39 165.34 681.39 169.51C681.39 173.38 683.13 176.99 687.38 176.99C691.63 176.99 692.63 174.19 692.63 171.02V170.82H687.34V168.69H695.05V178.83V178.82Z" fill="white"/>
<path d="M714.48 169.91H705.01V176.65H715.41L715.08 178.81H702.53V159.77H714.93V161.93H705V167.74H714.47V169.9L714.48 169.91Z" fill="white"/>
<path d="M737.88 170.7C737.88 167.16 737.92 163.57 738 161.57H737.9C737.08 164.66 734 172.83 731.82 178.82H729.56C727.91 173.95 724.72 164.78 723.86 161.53H723.78C723.93 163.73 723.99 167.96 723.99 171.22V178.81H721.61V159.77H725.38C727.54 165.68 730.19 173.3 730.84 175.73H730.89C731.34 173.9 734.46 165.53 736.7 159.77H740.36V178.81H737.89V170.69L737.88 170.7Z" fill="white"/>
<path d="M760.21 169.91H750.74V176.65H761.14L760.81 178.81H748.26V159.77H760.66V161.93H750.73V167.74H760.2V169.9L760.21 169.91Z" fill="white"/>
<path d="M767.32 178.82V159.78H770.66C773.39 164.23 779.33 173.7 780.4 175.77H780.44C780.26 173.33 780.27 170.32 780.27 167.21V159.77H782.66V178.81H779.52C777 174.68 770.81 164.49 769.61 162.35H769.57C769.71 164.52 769.71 167.75 769.71 171.18V178.81H767.31L767.32 178.82Z" fill="white"/>
<path d="M794.49 161.94H788.34V159.78H803.19V161.94H797.03V178.82H794.49V161.94Z" fill="white"/>
<path d="M820.91 173.1L818.86 178.81H816.35L823.13 159.77H826.24L833.31 178.81H830.62L828.51 173.1H820.91ZM827.86 170.94C826.04 165.93 825.05 163.28 824.64 161.82H824.61C824.14 163.44 823.03 166.65 821.57 170.94H827.87H827.86Z" fill="white"/>
<path d="M854.12 178.82H852.21C852.08 178.46 852.01 177.62 851.97 176.27C851.15 177.6 849.53 179.07 846.13 179.07C840.71 179.07 837.83 174.96 837.83 169.61C837.83 163.98 840.92 159.75 846.59 159.75C850.96 159.75 853.7 162.11 854.24 165.47H851.75C851.11 163.37 849.6 161.82 846.54 161.82C842.18 161.82 840.45 165.3 840.45 169.48C840.45 173.35 842.19 176.96 846.44 176.96C850.69 176.96 851.7 174.16 851.7 170.99V170.79H846.41V168.66H854.13V178.81L854.12 178.82Z" fill="white"/>
<path d="M873.53 169.91H864.06V176.65H874.46L874.13 178.81H861.58V159.77H873.98V161.93H864.05V167.74H873.52V169.9L873.53 169.91Z" fill="white"/>
<path d="M880.64 178.82V159.78H883.98C886.71 164.23 892.65 173.7 893.72 175.77H893.76C893.58 173.33 893.59 170.32 893.59 167.21V159.77H895.98V178.81H892.84C890.32 174.68 884.13 164.49 882.93 162.35H882.89C883.03 164.52 883.03 167.75 883.03 171.18V178.81H880.63L880.64 178.82Z" fill="white"/>
<path d="M918.71 173.5C917.88 176.69 915.5 179.06 911.24 179.06C905.62 179.06 902.79 174.8 902.79 169.49C902.79 164.18 905.63 159.78 911.33 159.78C915.76 159.78 918.16 162.31 918.71 165.44H916.22C915.55 163.4 914.19 161.85 911.22 161.85C907.08 161.85 905.39 165.62 905.39 169.41C905.39 173.2 907 176.98 911.33 176.98C914.23 176.98 915.49 175.32 916.2 173.5H918.7H918.71Z" fill="white"/>
<path d="M929.89 178.82V171.83C929.89 171.65 929.84 171.45 929.76 171.32L923.05 159.77H925.94C927.67 162.86 930.43 167.77 931.3 169.45C932.12 167.8 934.96 162.85 936.77 159.77H939.47L932.55 171.36C932.49 171.48 932.44 171.58 932.44 171.85V178.81H929.9L929.89 178.82Z" fill="white"/>
<defs>
<linearGradient id="paint0_linear_3108_90" x1="0.530039" y1="90" x2="184.75" y2="90" gradientUnits="userSpaceOnUse">
<stop stop-color="#00B5AD"/>
<stop offset="1" stop-color="#02423D"/>
</linearGradient>
<linearGradient id="paint1_linear_3108_90" x1="86.3401" y1="140.47" x2="184.68" y2="140.47" gradientUnits="userSpaceOnUse">
<stop stop-color="#00B5AD"/>
<stop offset="1" stop-color="#02423D"/>
</linearGradient>
</defs>
</svg>
