<svg width="34" height="35" viewBox="0 0 34 35" fill="none" xmlns="http://www.w3.org/2000/svg">
<g clip-path="url(#clip0_82_43805)">
<rect y="0.69043" width="34" height="34" rx="7" fill="url(#paint0_linear_82_43805)"/>
<path d="M24.3172 18.133L18.6922 23.758C18.5749 23.8752 18.4159 23.9411 18.25 23.9411C18.0841 23.9411 17.9251 23.8752 17.8078 23.758C17.6905 23.6407 17.6247 23.4816 17.6247 23.3158C17.6247 23.1499 17.6905 22.9909 17.8078 22.8736L22.3664 18.3158H10.125C9.95924 18.3158 9.80027 18.2499 9.68306 18.1327C9.56585 18.0155 9.5 17.8565 9.5 17.6908C9.5 17.525 9.56585 17.366 9.68306 17.2488C9.80027 17.1316 9.95924 17.0658 10.125 17.0658H22.3664L17.8078 12.508C17.6905 12.3907 17.6247 12.2316 17.6247 12.0658C17.6247 11.8999 17.6905 11.7409 17.8078 11.6236C17.9251 11.5063 18.0841 11.4404 18.25 11.4404C18.4159 11.4404 18.5749 11.5063 18.6922 11.6236L24.3172 17.2486C24.3753 17.3066 24.4214 17.3756 24.4529 17.4514C24.4843 17.5273 24.5005 17.6086 24.5005 17.6908C24.5005 17.7729 24.4843 17.8542 24.4529 17.9301C24.4214 18.006 24.3753 18.0749 24.3172 18.133Z" fill="white"/>
<rect x="0.5" y="1.19043" width="33" height="33" rx="6.5" stroke="#EEEEEE" stroke-opacity="0.1"/>
</g>
<defs>
<linearGradient id="paint0_linear_82_43805" x1="-1.5815" y1="2.64342" x2="35.5815" y2="32.7374" gradientUnits="userSpaceOnUse">
<stop stop-color="#242424"/>
<stop offset="1" stop-color="#101010"/>
</linearGradient>
<clipPath id="clip0_82_43805">
<rect y="0.69043" width="34" height="34" rx="7" fill="white"/>
</clipPath>
</defs>
</svg>
