<svg width="51" height="50" viewBox="0 0 51 50" fill="none" xmlns="http://www.w3.org/2000/svg">
<path d="M46.0758 31.2498V18.7498C46.0758 8.33317 41.9092 4.1665 31.4925 4.1665H18.9925C8.57585 4.1665 4.40918 8.33317 4.40918 18.7498V31.2498C4.40918 41.6665 8.57585 45.8332 18.9925 45.8332H31.4925C41.9092 45.8332 46.0758 41.6665 46.0758 31.2498Z" stroke="#018A83" stroke-width="3.11309" stroke-linecap="round" stroke-linejoin="round"/>
<path d="M46.0758 31.2498V18.7498C46.0758 8.33317 41.9092 4.1665 31.4925 4.1665H18.9925C8.57585 4.1665 4.40918 8.33317 4.40918 18.7498V31.2498C4.40918 41.6665 8.57585 45.8332 18.9925 45.8332H31.4925C41.9092 45.8332 46.0758 41.6665 46.0758 31.2498Z" stroke="#018A83" stroke-width="3.11309" stroke-linecap="round" stroke-linejoin="round"/>
<path d="M5.49268 14.8125H44.9927" stroke="#018A83" stroke-width="3.11309" stroke-linecap="round" stroke-linejoin="round"/>
<path d="M5.49268 14.8125H44.9927" stroke="#018A83" stroke-width="3.11309" stroke-linecap="round" stroke-linejoin="round"/>
<path d="M17.9927 4.396V14.521" stroke="#018A83" stroke-width="3.11309" stroke-linecap="round" stroke-linejoin="round"/>
<path d="M17.9927 4.396V14.521" stroke="#018A83" stroke-width="3.11309" stroke-linecap="round" stroke-linejoin="round"/>
<path d="M32.4917 4.396V13.5835" stroke="#018A83" stroke-width="3.11309" stroke-linecap="round" stroke-linejoin="round"/>
<path d="M32.4917 4.396V13.5835" stroke="#018A83" stroke-width="3.11309" stroke-linecap="round" stroke-linejoin="round"/>
<path d="M20.5542 30.104V27.604C20.5542 24.3957 22.825 23.0832 25.5959 24.6873L27.7625 25.9373L29.9292 27.1873C32.7 28.7915 32.7 31.4165 29.9292 33.0207L27.7625 34.2707L25.5959 35.5207C22.825 37.1248 20.5542 35.8123 20.5542 32.604V30.104V30.104Z" stroke="#018A83" stroke-width="3.11309" stroke-miterlimit="10" stroke-linecap="round" stroke-linejoin="round"/>
</svg>
