<svg width="51" height="50" viewBox="0 0 51 50" fill="none" xmlns="http://www.w3.org/2000/svg">
<path d="M46.1003 21.7498L44.0586 30.4581C42.3086 37.979 38.8503 41.0206 32.3503 40.3956C31.3086 40.3123 30.1836 40.1248 28.9753 39.8332L25.4753 38.9998C16.7878 36.9373 14.1003 32.6456 16.142 23.9373L18.1836 15.2081C18.6003 13.4373 19.1003 11.8956 19.7253 10.6248C22.1628 5.58315 26.3086 4.22898 33.267 5.87481L36.7461 6.68731C45.4753 8.72898 48.142 13.0415 46.1003 21.7498Z" stroke="#0B1E2B" stroke-width="3.11309" stroke-linecap="round" stroke-linejoin="round"/>
<path d="M46.1003 21.7498L44.0586 30.4581C42.3086 37.979 38.8503 41.0206 32.3503 40.3956C31.3086 40.3123 30.1836 40.1248 28.9753 39.8332L25.4753 38.9998C16.7878 36.9373 14.1003 32.6456 16.142 23.9373L18.1836 15.2081C18.6003 13.4373 19.1003 11.8956 19.7253 10.6248C22.1628 5.58315 26.3086 4.22898 33.267 5.87481L36.7461 6.68731C45.4753 8.72898 48.142 13.0415 46.1003 21.7498Z" stroke="#018A83" stroke-width="3.11309" stroke-linecap="round" stroke-linejoin="round"/>
<path d="M32.3508 40.3961C31.0591 41.2711 29.4341 42.0002 27.455 42.6461L24.1633 43.7294C15.8925 46.3961 11.5383 44.1669 8.85081 35.8961L6.18414 27.6669C3.51747 19.3961 5.72581 15.0211 13.9966 12.3544L17.2883 11.2711C18.1425 11.0002 18.955 10.7711 19.7258 10.6252C19.1008 11.8961 18.6008 13.4377 18.1841 15.2086L16.1425 23.9377C14.1008 32.6461 16.7883 36.9377 25.4758 39.0002L28.9758 39.8336C30.1841 40.1252 31.3091 40.3127 32.3508 40.3961Z" stroke="#0B1E2B" stroke-width="3.11309" stroke-linecap="round" stroke-linejoin="round"/>
<path d="M32.3508 40.3961C31.0591 41.2711 29.4341 42.0002 27.455 42.6461L24.1633 43.7294C15.8925 46.3961 11.5383 44.1669 8.85081 35.8961L6.18414 27.6669C3.51747 19.3961 5.72581 15.0211 13.9966 12.3544L17.2883 11.2711C18.1425 11.0002 18.955 10.7711 19.7258 10.6252C19.1008 11.8961 18.6008 13.4377 18.1841 15.2086L16.1425 23.9377C14.1008 32.6461 16.7883 36.9377 25.4758 39.0002L28.9758 39.8336C30.1841 40.1252 31.3091 40.3127 32.3508 40.3961Z" stroke="#018A83" stroke-width="3.11309" stroke-linecap="round" stroke-linejoin="round"/>
<path d="M27.3091 17.771L37.4132 20.3335" stroke="#0B1E2B" stroke-width="3.11309" stroke-linecap="round" stroke-linejoin="round"/>
<path d="M27.3091 17.771L37.4132 20.3335" stroke="#018A83" stroke-width="3.11309" stroke-linecap="round" stroke-linejoin="round"/>
<path d="M25.2671 25.8335L31.3088 27.3752" stroke="#0B1E2B" stroke-width="3.11309" stroke-linecap="round" stroke-linejoin="round"/>
<path d="M25.2671 25.8335L31.3088 27.3752" stroke="#018A83" stroke-width="3.11309" stroke-linecap="round" stroke-linejoin="round"/>
</svg>
