<svg width="51" height="51" viewBox="0 0 51 51" fill="none" xmlns="http://www.w3.org/2000/svg">
<path d="M21.7939 37.0657H30.1273" stroke="#018A83" stroke-width="3.11309" stroke-linecap="round" stroke-linejoin="round"/>
<path d="M21.7939 37.0657H30.1273" stroke="#018A83" stroke-width="3.11309" stroke-linecap="round" stroke-linejoin="round"/>
<path d="M5.12793 37.0657V16.2323C5.12793 7.89901 7.21126 5.81567 15.5446 5.81567" stroke="#018A83" stroke-width="3.11309" stroke-linecap="round" stroke-linejoin="round"/>
<path d="M5.12793 37.0657V16.2323C5.12793 7.89901 7.21126 5.81567 15.5446 5.81567" stroke="#018A83" stroke-width="3.11309" stroke-linecap="round" stroke-linejoin="round"/>
<path d="M46.7941 37.0657V16.2323C46.7941 7.89901 44.7108 5.81567 36.3774 5.81567" stroke="#018A83" stroke-width="3.11309" stroke-linecap="round" stroke-linejoin="round"/>
<path d="M46.7941 37.0657V16.2323C46.7941 7.89901 44.7108 5.81567 36.3774 5.81567" stroke="#018A83" stroke-width="3.11309" stroke-linecap="round" stroke-linejoin="round"/>
<path d="M21.7946 33.7533V40.6074C21.7946 44.7741 20.1279 46.4408 15.9613 46.4408H10.9613C6.7946 46.4408 5.12793 44.7741 5.12793 40.6074V33.7533C5.12793 29.5866 6.7946 27.9199 10.9613 27.9199H15.9613C20.1279 27.9199 21.7946 29.5866 21.7946 33.7533Z" stroke="#018A83" stroke-width="3.11309" stroke-linecap="round" stroke-linejoin="round"/>
<path d="M21.7946 33.7533V40.6074C21.7946 44.7741 20.1279 46.4408 15.9613 46.4408H10.9613C6.7946 46.4408 5.12793 44.7741 5.12793 40.6074V33.7533C5.12793 29.5866 6.7946 27.9199 10.9613 27.9199H15.9613C20.1279 27.9199 21.7946 29.5866 21.7946 33.7533Z" stroke="#018A83" stroke-width="3.11309" stroke-linecap="round" stroke-linejoin="round"/>
<path d="M46.7946 33.7533V40.6074C46.7946 44.7741 45.1279 46.4408 40.9613 46.4408H35.9613C31.7946 46.4408 30.1279 44.7741 30.1279 40.6074V33.7533C30.1279 29.5866 31.7946 27.9199 35.9613 27.9199H40.9613C45.1279 27.9199 46.7946 29.5866 46.7946 33.7533Z" stroke="#018A83" stroke-width="3.11309" stroke-linecap="round" stroke-linejoin="round"/>
</svg>
