<svg width="51" height="51" viewBox="0 0 51 51" fill="none" xmlns="http://www.w3.org/2000/svg">
<path d="M19.6456 23.3674C19.4373 23.3465 19.1873 23.3465 18.9581 23.3674C13.9998 23.2007 10.0623 19.1382 10.0623 14.1382C10.0623 9.03402 14.1873 4.88818 19.3123 4.88818C24.4164 4.88818 28.5623 9.03402 28.5623 14.1382C28.5414 19.1382 24.6039 23.2007 19.6456 23.3674Z" stroke="#0B1E2B" stroke-width="3.11309" stroke-linecap="round" stroke-linejoin="round"/>
<path d="M19.6456 23.3674C19.4373 23.3465 19.1873 23.3465 18.9581 23.3674C13.9998 23.2007 10.0623 19.1382 10.0623 14.1382C10.0623 9.03402 14.1873 4.88818 19.3123 4.88818C24.4164 4.88818 28.5623 9.03402 28.5623 14.1382C28.5414 19.1382 24.6039 23.2007 19.6456 23.3674Z" stroke="#018A83" stroke-width="3.11309" stroke-linecap="round" stroke-linejoin="round"/>
<path d="M34.7498 9.05518C38.7915 9.05518 42.0415 12.326 42.0415 16.3468C42.0415 20.2843 38.9165 23.4927 35.0207 23.6385C34.854 23.6177 34.6665 23.6177 34.479 23.6385" stroke="#0B1E2B" stroke-width="3.11309" stroke-linecap="round" stroke-linejoin="round"/>
<path d="M34.7498 9.05518C38.7915 9.05518 42.0415 12.326 42.0415 16.3468C42.0415 20.2843 38.9165 23.4927 35.0207 23.6385C34.854 23.6177 34.6665 23.6177 34.479 23.6385" stroke="#018A83" stroke-width="3.11309" stroke-linecap="round" stroke-linejoin="round"/>
<path d="M9.22925 31.0552C4.18758 34.4302 4.18758 39.9302 9.22925 43.2843C14.9584 47.1177 24.3543 47.1177 30.0834 43.2843C35.1251 39.9093 35.1251 34.4093 30.0834 31.0552C24.3751 27.2427 14.9792 27.2427 9.22925 31.0552Z" stroke="#0B1E2B" stroke-width="3.11309" stroke-linecap="round" stroke-linejoin="round"/>
<path d="M9.22925 31.0552C4.18758 34.4302 4.18758 39.9302 9.22925 43.2843C14.9584 47.1177 24.3543 47.1177 30.0834 43.2843C35.1251 39.9093 35.1251 34.4093 30.0834 31.0552C24.3751 27.2427 14.9792 27.2427 9.22925 31.0552Z" stroke="#018A83" stroke-width="3.11309" stroke-linecap="round" stroke-linejoin="round"/>
<path d="M38.7708 42.3882C40.2708 42.0757 41.6874 41.4715 42.8541 40.5757C46.1041 38.1382 46.1041 34.1174 42.8541 31.6798C41.7082 30.8048 40.3124 30.2215 38.8333 29.8882" stroke="#0B1E2B" stroke-width="3.11309" stroke-linecap="round" stroke-linejoin="round"/>
<path d="M38.7708 42.3882C40.2708 42.0757 41.6874 41.4715 42.8541 40.5757C46.1041 38.1382 46.1041 34.1174 42.8541 31.6798C41.7082 30.8048 40.3124 30.2215 38.8333 29.8882" stroke="#018A83" stroke-width="3.11309" stroke-linecap="round" stroke-linejoin="round"/>
</svg>
