<svg width="51" height="50" viewBox="0 0 51 50" fill="none" xmlns="http://www.w3.org/2000/svg">
<path d="M27.1585 4.70801L40.721 12.0205C42.3044 12.8747 42.3044 15.3122 40.721 16.1663L27.1585 23.4788C25.9502 24.1247 24.5335 24.1247 23.3252 23.4788L9.7627 16.1663C8.17936 15.3122 8.17936 12.8747 9.7627 12.0205L23.3252 4.70801C24.5335 4.06217 25.9502 4.06217 27.1585 4.70801Z" stroke="#0B1E2B" stroke-width="3.11309" stroke-linecap="round" stroke-linejoin="round"/>
<path d="M27.1585 4.70801L40.721 12.0205C42.3044 12.8747 42.3044 15.3122 40.721 16.1663L27.1585 23.4788C25.9502 24.1247 24.5335 24.1247 23.3252 23.4788L9.7627 16.1663C8.17936 15.3122 8.17936 12.8747 9.7627 12.0205L23.3252 4.70801C24.5335 4.06217 25.9502 4.06217 27.1585 4.70801Z" stroke="#018A83" stroke-width="3.11309" stroke-linecap="round" stroke-linejoin="round"/>
<path d="M7.76335 21.1041L20.3675 27.4166C21.93 28.2082 22.93 29.8124 22.93 31.5624V43.4791C22.93 45.2082 21.1175 46.3124 19.5758 45.5416L6.97168 39.2291C5.40918 38.4374 4.40918 36.8332 4.40918 35.0832V23.1666C4.40918 21.4374 6.22168 20.3332 7.76335 21.1041Z" stroke="#0B1E2B" stroke-width="3.11309" stroke-linecap="round" stroke-linejoin="round"/>
<path d="M7.76335 21.1041L20.3675 27.4166C21.93 28.2082 22.93 29.8124 22.93 31.5624V43.4791C22.93 45.2082 21.1175 46.3124 19.5758 45.5416L6.97168 39.2291C5.40918 38.4374 4.40918 36.8332 4.40918 35.0832V23.1666C4.40918 21.4374 6.22168 20.3332 7.76335 21.1041Z" stroke="#018A83" stroke-width="3.11309" stroke-linecap="round" stroke-linejoin="round"/>
<path d="M42.7214 21.1041L30.1172 27.4166C28.5547 28.2082 27.5547 29.8124 27.5547 31.5624V43.4791C27.5547 45.2082 29.3672 46.3124 30.9089 45.5416L43.513 39.2291C45.0755 38.4374 46.0755 36.8332 46.0755 35.0832V23.1666C46.0755 21.4374 44.263 20.3332 42.7214 21.1041Z" stroke="#0B1E2B" stroke-width="3.11309" stroke-linecap="round" stroke-linejoin="round"/>
<path d="M42.7214 21.1041L30.1172 27.4166C28.5547 28.2082 27.5547 29.8124 27.5547 31.5624V43.4791C27.5547 45.2082 29.3672 46.3124 30.9089 45.5416L43.513 39.2291C45.0755 38.4374 46.0755 36.8332 46.0755 35.0832V23.1666C46.0755 21.4374 44.263 20.3332 42.7214 21.1041Z" stroke="#018A83" stroke-width="3.11309" stroke-linecap="round" stroke-linejoin="round"/>
</svg>
