<svg width="51" height="50" viewBox="0 0 51 50" fill="none" xmlns="http://www.w3.org/2000/svg">
<path d="M18.305 29.1665H8.57585C6.28418 29.1665 4.40918 31.0415 4.40918 33.3332V45.8332H18.305V29.1665Z" stroke="#0B1E2B" stroke-width="3.11309" stroke-miterlimit="10" stroke-linecap="round" stroke-linejoin="round"/>
<path d="M18.305 29.1665H8.57585C6.28418 29.1665 4.40918 31.0415 4.40918 33.3332V45.8332H18.305V29.1665Z" stroke="#018A83" stroke-width="3.11309" stroke-miterlimit="10" stroke-linecap="round" stroke-linejoin="round"/>
<path d="M28.0134 20.8335H22.4508C20.1592 20.8335 18.2842 22.7085 18.2842 25.0002V45.8335H32.18V25.0002C32.18 22.7085 30.3259 20.8335 28.0134 20.8335Z" stroke="#0B1E2B" stroke-width="3.11309" stroke-miterlimit="10" stroke-linecap="round" stroke-linejoin="round"/>
<path d="M28.0134 20.8335H22.4508C20.1592 20.8335 18.2842 22.7085 18.2842 25.0002V45.8335H32.18V25.0002C32.18 22.7085 30.3259 20.8335 28.0134 20.8335Z" stroke="#018A83" stroke-width="3.11309" stroke-miterlimit="10" stroke-linecap="round" stroke-linejoin="round"/>
<path d="M41.9089 35.4165H32.1797V45.8332H46.0755V39.5832C46.0755 37.2915 44.2005 35.4165 41.9089 35.4165Z" stroke="#0B1E2B" stroke-width="3.11309" stroke-miterlimit="10" stroke-linecap="round" stroke-linejoin="round"/>
<path d="M41.9089 35.4165H32.1797V45.8332H46.0755V39.5832C46.0755 37.2915 44.2005 35.4165 41.9089 35.4165Z" stroke="#018A83" stroke-width="3.11309" stroke-miterlimit="10" stroke-linecap="round" stroke-linejoin="round"/>
<path d="M26.3255 4.31286L27.4297 6.52119C27.5755 6.83369 27.9713 7.12535 28.3047 7.16702L30.3047 7.50036C31.5755 7.7087 31.888 8.64615 30.9713 9.54199L29.4088 11.1045C29.138 11.3753 28.9922 11.8753 29.0755 12.2295L29.513 14.1462C29.8672 15.667 29.0547 16.2504 27.7213 15.4587L25.8463 14.3545C25.513 14.1462 24.9505 14.1462 24.6172 14.3545L22.7422 15.4587C21.4088 16.2504 20.5963 15.667 20.9505 14.1462L21.388 12.2295C21.4713 11.8753 21.3255 11.3545 21.0547 11.1045L19.513 9.56284C18.5963 8.64617 18.888 7.72949 20.1797 7.52115L22.1797 7.18787C22.513 7.12537 22.9088 6.83371 23.0547 6.54205L24.1588 4.33365C24.763 3.12532 25.7213 3.12536 26.3255 4.31286Z" stroke="#0B1E2B" stroke-width="3.11309" stroke-linecap="round" stroke-linejoin="round"/>
<path d="M26.3255 4.31286L27.4297 6.52119C27.5755 6.83369 27.9713 7.12535 28.3047 7.16702L30.3047 7.50036C31.5755 7.7087 31.888 8.64615 30.9713 9.54199L29.4088 11.1045C29.138 11.3753 28.9922 11.8753 29.0755 12.2295L29.513 14.1462C29.8672 15.667 29.0547 16.2504 27.7213 15.4587L25.8463 14.3545C25.513 14.1462 24.9505 14.1462 24.6172 14.3545L22.7422 15.4587C21.4088 16.2504 20.5963 15.667 20.9505 14.1462L21.388 12.2295C21.4713 11.8753 21.3255 11.3545 21.0547 11.1045L19.513 9.56284C18.5963 8.64617 18.888 7.72949 20.1797 7.52115L22.1797 7.18787C22.513 7.12537 22.9088 6.83371 23.0547 6.54205L24.1588 4.33365C24.763 3.12532 25.7213 3.12536 26.3255 4.31286Z" stroke="#018A83" stroke-width="3.11309" stroke-linecap="round" stroke-linejoin="round"/>
</svg>
