<svg width="51" height="50" viewBox="0 0 51 50" fill="none" xmlns="http://www.w3.org/2000/svg">
<path d="M32.9922 20.1877C37.2839 24.4794 37.2839 31.4169 32.9922 35.6877C28.7005 39.9794 21.763 39.9794 17.4922 35.6877C13.2005 31.3961 13.2005 24.4586 17.4922 20.1877C21.763 15.8961 28.7214 15.8961 32.9922 20.1877Z" stroke="#018A83" stroke-width="3.11309" stroke-linecap="round" stroke-linejoin="round"/>
<path d="M32.9922 20.1877C37.2839 24.4794 37.2839 31.4169 32.9922 35.6877C28.7005 39.9794 21.763 39.9794 17.4922 35.6877C13.2005 31.3961 13.2005 24.4586 17.4922 20.1877C21.763 15.8961 28.7214 15.8961 32.9922 20.1877Z" stroke="#018A83" stroke-width="3.11309" stroke-linecap="round" stroke-linejoin="round"/>
<path d="M25.2417 27.9373L21.9292 31.2498" stroke="#018A83" stroke-width="3.11309" stroke-linecap="round" stroke-linejoin="round"/>
<path d="M25.2417 27.9373L21.9292 31.2498" stroke="#018A83" stroke-width="3.11309" stroke-linecap="round" stroke-linejoin="round"/>
<path d="M39.9719 13.2085C40.2844 13.521 40.2844 14.0418 39.9719 14.3752C39.6594 14.6877 39.1386 14.6877 38.8052 14.3752C38.4719 14.0627 38.4927 13.5418 38.8052 13.2085C39.1177 12.8752 39.6594 12.8752 39.9719 13.2085Z" stroke="#018A83" stroke-width="3.11309" stroke-miterlimit="10"/>
<path d="M39.9719 13.2085C40.2844 13.521 40.2844 14.0418 39.9719 14.3752C39.6594 14.6877 39.1386 14.6877 38.8052 14.3752C38.4719 14.0627 38.4927 13.5418 38.8052 13.2085C39.1177 12.8752 39.6594 12.8752 39.9719 13.2085Z" stroke="#018A83" stroke-width="3.11309" stroke-miterlimit="10"/>
<path d="M39.9719 13.2085C40.2844 13.521 40.2844 14.0418 39.9719 14.3752C39.6594 14.6877 39.1386 14.6877 38.8052 14.3752C38.4719 14.0627 38.4927 13.5418 38.8052 13.2085C39.1177 12.8752 39.6594 12.8752 39.9719 13.2085Z" stroke="#018A83" stroke-width="3.11309" stroke-linecap="round" stroke-linejoin="round"/>
<path d="M39.9719 13.2085C40.2844 13.521 40.2844 14.0418 39.9719 14.3752C39.6594 14.6877 39.1386 14.6877 38.8052 14.3752C38.4719 14.0627 38.4927 13.5418 38.8052 13.2085C39.1177 12.8752 39.6594 12.8752 39.9719 13.2085Z" stroke="#018A83" stroke-width="3.11309" stroke-linecap="round" stroke-linejoin="round"/>
<path d="M11.6798 41.5C11.9923 41.8125 11.9923 42.3333 11.6798 42.6667C11.3673 43 10.8465 42.9792 10.5132 42.6667C10.2007 42.3542 10.2007 41.8333 10.5132 41.5C10.8257 41.1667 11.3673 41.1667 11.6798 41.5Z" stroke="#018A83" stroke-width="3.11309" stroke-miterlimit="10"/>
<path d="M11.6798 41.5C11.9923 41.8125 11.9923 42.3333 11.6798 42.6667C11.3673 43 10.8465 42.9792 10.5132 42.6667C10.2007 42.3542 10.2007 41.8333 10.5132 41.5C10.8257 41.1667 11.3673 41.1667 11.6798 41.5Z" stroke="#018A83" stroke-width="3.11309" stroke-linecap="round" stroke-linejoin="round"/>
<path d="M45.8249 27.3542C46.1374 27.6667 46.1374 28.1876 45.8249 28.5209C45.5124 28.8334 44.9916 28.8334 44.6583 28.5209C44.3249 28.2084 44.3458 27.6876 44.6583 27.3542C44.9708 27.0209 45.5124 27.0209 45.8249 27.3542Z" stroke="#018A83" stroke-width="3.11309" stroke-miterlimit="10"/>
<path d="M45.8249 27.3542C46.1374 27.6667 46.1374 28.1876 45.8249 28.5209C45.5124 28.8334 44.9916 28.8334 44.6583 28.5209C44.3249 28.2084 44.3458 27.6876 44.6583 27.3542C44.9708 27.0209 45.5124 27.0209 45.8249 27.3542Z" stroke="#018A83" stroke-width="3.11309" stroke-linecap="round" stroke-linejoin="round"/>
<path d="M5.8054 27.3542C6.1179 27.6667 6.1179 28.1876 5.8054 28.5209C5.4929 28.8542 4.97201 28.8334 4.63867 28.5209C4.32617 28.2084 4.32617 27.6876 4.63867 27.3542C4.97201 27.0209 5.4929 27.0209 5.8054 27.3542Z" stroke="#018A83" stroke-width="3.11309" stroke-miterlimit="10"/>
<path d="M5.8054 27.3542C6.1179 27.6667 6.1179 28.1876 5.8054 28.5209C5.4929 28.8542 4.97201 28.8334 4.63867 28.5209C4.32617 28.2084 4.32617 27.6876 4.63867 27.3542C4.97201 27.0209 5.4929 27.0209 5.8054 27.3542Z" stroke="#018A83" stroke-width="3.11309" stroke-linecap="round" stroke-linejoin="round"/>
<path d="M39.9719 41.5C40.2844 41.8125 40.2844 42.3333 39.9719 42.6667C39.6594 42.9792 39.1386 42.9792 38.8052 42.6667C38.4719 42.3542 38.4927 41.8333 38.8052 41.5C39.1386 41.1667 39.6594 41.1667 39.9719 41.5Z" stroke="#018A83" stroke-width="3.11309" stroke-miterlimit="10"/>
<path d="M39.9719 41.5C40.2844 41.8125 40.2844 42.3333 39.9719 42.6667C39.6594 42.9792 39.1386 42.9792 38.8052 42.6667C38.4719 42.3542 38.4927 41.8333 38.8052 41.5C39.1386 41.1667 39.6594 41.1667 39.9719 41.5Z" stroke="#018A83" stroke-width="3.11309" stroke-linecap="round" stroke-linejoin="round"/>
<path d="M11.6798 13.2085C11.9923 13.521 11.9923 14.0418 11.6798 14.3752C11.3673 14.7085 10.8465 14.6877 10.5132 14.3752C10.2007 14.0627 10.2007 13.5418 10.5132 13.2085C10.8257 12.8752 11.3673 12.8752 11.6798 13.2085Z" stroke="#018A83" stroke-width="3.11309" stroke-miterlimit="10"/>
<path d="M11.6798 13.2085C11.9923 13.521 11.9923 14.0418 11.6798 14.3752C11.3673 14.7085 10.8465 14.6877 10.5132 14.3752C10.2007 14.0627 10.2007 13.5418 10.5132 13.2085C10.8257 12.8752 11.3673 12.8752 11.6798 13.2085Z" stroke="#018A83" stroke-width="3.11309" stroke-linecap="round" stroke-linejoin="round"/>
<path d="M25.8249 7.33332C26.1374 7.64582 26.1374 8.16664 25.8249 8.49998C25.5124 8.83331 24.9916 8.81248 24.6583 8.49998C24.3249 8.18748 24.3458 7.66665 24.6583 7.33332C24.9708 6.99998 25.5124 7.02081 25.8249 7.33332Z" stroke="#018A83" stroke-width="3.11309" stroke-miterlimit="10"/>
<path d="M25.8249 7.33332C26.1374 7.64582 26.1374 8.16664 25.8249 8.49998C25.5124 8.83331 24.9916 8.81248 24.6583 8.49998C24.3249 8.18748 24.3458 7.66665 24.6583 7.33332C24.9708 6.99998 25.5124 7.02081 25.8249 7.33332Z" stroke="#018A83" stroke-width="3.11309" stroke-linecap="round" stroke-linejoin="round"/>
</svg>
