<svg width="51" height="51" viewBox="0 0 51 51" fill="none" xmlns="http://www.w3.org/2000/svg">
<path d="M35.3543 40.2634H15.771C14.896 40.2634 13.9168 39.5759 13.6252 38.7426L5.00017 14.6176C3.771 11.1593 5.2085 10.0968 8.16684 12.2218L16.2918 18.0343C17.646 18.9718 19.1877 18.4926 19.771 16.9718L23.4377 7.20093C24.6043 4.07593 26.5418 4.07593 27.7085 7.20093L31.3752 16.9718C31.9585 18.4926 33.5002 18.9718 34.8335 18.0343L42.4585 12.5968C45.7085 10.2634 47.271 11.4509 45.9377 15.2218L37.521 38.7843C37.2085 39.5759 36.2293 40.2634 35.3543 40.2634Z" stroke="#0B1E2B" stroke-width="3.11309" stroke-linecap="round" stroke-linejoin="round"/>
<path d="M35.3543 40.2634H15.771C14.896 40.2634 13.9168 39.5759 13.6252 38.7426L5.00017 14.6176C3.771 11.1593 5.2085 10.0968 8.16684 12.2218L16.2918 18.0343C17.646 18.9718 19.1877 18.4926 19.771 16.9718L23.4377 7.20093C24.6043 4.07593 26.5418 4.07593 27.7085 7.20093L31.3752 16.9718C31.9585 18.4926 33.5002 18.9718 34.8335 18.0343L42.4585 12.5968C45.7085 10.2634 47.271 11.4509 45.9377 15.2218L37.521 38.7843C37.2085 39.5759 36.2293 40.2634 35.3543 40.2634Z" stroke="#018A83" stroke-width="3.11309" stroke-linecap="round" stroke-linejoin="round"/>
<path d="M14.104 46.5552H37.0207" stroke="#0B1E2B" stroke-width="3.11309" stroke-linecap="round" stroke-linejoin="round"/>
<path d="M14.104 46.5552H37.0207" stroke="#018A83" stroke-width="3.11309" stroke-linecap="round" stroke-linejoin="round"/>
<path d="M20.3535 29.8882H30.7702" stroke="#0B1E2B" stroke-width="3.11309" stroke-linecap="round" stroke-linejoin="round"/>
<path d="M20.3535 29.8882H30.7702" stroke="#018A83" stroke-width="3.11309" stroke-linecap="round" stroke-linejoin="round"/>
</svg>
