<svg width="51" height="51" viewBox="0 0 51 51" fill="none" xmlns="http://www.w3.org/2000/svg">
<path d="M46.7941 27.6906V19.3573C46.7941 8.94059 42.6274 4.77393 32.2108 4.77393H19.7108C9.29411 4.77393 5.12744 8.94059 5.12744 19.3573V31.8573C5.12744 42.2739 9.29411 46.4406 19.7108 46.4406H28.0441" stroke="#018A83" stroke-width="3.11309" stroke-linecap="round" stroke-linejoin="round"/>
<path d="M46.7941 27.6906V19.3573C46.7941 8.94059 42.6274 4.77393 32.2108 4.77393H19.7108C9.29411 4.77393 5.12744 8.94059 5.12744 19.3573V31.8573C5.12744 42.2739 9.29411 46.4406 19.7108 46.4406H28.0441" stroke="#018A83" stroke-width="3.11309" stroke-linecap="round" stroke-linejoin="round"/>
<path d="M46.7941 27.6906V19.3573C46.7941 8.94059 42.6274 4.77393 32.2108 4.77393H19.7108C9.29411 4.77393 5.12744 8.94059 5.12744 19.3573V31.8573C5.12744 42.2739 9.29411 46.4406 19.7108 46.4406H28.0441" stroke="#018A83" stroke-width="3.11309" stroke-linecap="round" stroke-linejoin="round"/>
<path d="M46.7941 27.6906V19.3573C46.7941 8.94059 42.6274 4.77393 32.2108 4.77393H19.7108C9.29411 4.77393 5.12744 8.94059 5.12744 19.3573V31.8573C5.12744 42.2739 9.29411 46.4406 19.7108 46.4406H28.0441" stroke="#018A83" stroke-width="3.11309" stroke-linecap="round" stroke-linejoin="round"/>
<path d="M46.7941 27.6906V19.3573C46.7941 8.94059 42.6274 4.77393 32.2108 4.77393H19.7108C9.29411 4.77393 5.12744 8.94059 5.12744 19.3573V31.8573C5.12744 42.2739 9.29411 46.4406 19.7108 46.4406H28.0441" stroke="#018A83" stroke-width="3.11309" stroke-linecap="round" stroke-linejoin="round"/>
<path d="M46.7941 27.6906V19.3573C46.7941 8.94059 42.6274 4.77393 32.2108 4.77393H19.7108C9.29411 4.77393 5.12744 8.94059 5.12744 19.3573V31.8573C5.12744 42.2739 9.29411 46.4406 19.7108 46.4406H28.0441" stroke="#018A83" stroke-width="3.11309" stroke-linecap="round" stroke-linejoin="round"/>
<path d="M34.2944 41.0869L37.5861 44.3577L44.7111 36.0244" stroke="#018A83" stroke-width="3.11309" stroke-linecap="round" stroke-linejoin="round"/>
<path d="M34.2944 41.0869L37.5861 44.3577L44.7111 36.0244" stroke="#018A83" stroke-width="3.11309" stroke-linecap="round" stroke-linejoin="round"/>
<path d="M15.5444 22.4827V28.7327" stroke="#018A83" stroke-width="3.11309" stroke-linecap="round" stroke-linejoin="round"/>
<path d="M25.9609 22.4827V28.7327" stroke="#018A83" stroke-width="3.11309" stroke-linecap="round" stroke-linejoin="round"/>
<path d="M36.3774 22.4827V28.7327" stroke="#018A83" stroke-width="3.11309" stroke-linecap="round" stroke-linejoin="round"/>
</svg>
