<svg width="51" height="50" viewBox="0 0 51 50" fill="none" xmlns="http://www.w3.org/2000/svg">
<path d="M22.6376 46.8755H27.8876C29.8876 46.8755 31.1792 45.4589 30.8042 43.7297L29.9501 39.959H20.5751L19.7209 43.7297C19.3459 45.3547 20.7626 46.8755 22.6376 46.8755Z" stroke="#018A83" stroke-width="3.11309" stroke-linecap="round" stroke-linejoin="round"/>
<path d="M22.6376 46.8755H27.8876C29.8876 46.8755 31.1792 45.4589 30.8042 43.7297L29.9501 39.959H20.5751L19.7209 43.7297C19.3459 45.3547 20.7626 46.8755 22.6376 46.8755Z" stroke="#018A83" stroke-width="3.11309" stroke-linecap="round" stroke-linejoin="round"/>
<path d="M29.9503 39.9379L33.5544 36.7295C35.5753 34.9378 35.6586 33.6877 34.0544 31.6669L27.7003 23.6045C26.3669 21.917 24.1794 21.917 22.8461 23.6045L16.4919 31.6669C14.8878 33.6877 14.8878 35.0003 16.9919 36.7295L20.5961 39.9379" stroke="#018A83" stroke-width="3.11309" stroke-linecap="round" stroke-linejoin="round"/>
<path d="M29.9503 39.9379L33.5544 36.7295C35.5753 34.9378 35.6586 33.6877 34.0544 31.6669L27.7003 23.6045C26.3669 21.917 24.1794 21.917 22.8461 23.6045L16.4919 31.6669C14.8878 33.6877 14.8878 35.0003 16.9919 36.7295L20.5961 39.9379" stroke="#018A83" stroke-width="3.11309" stroke-linecap="round" stroke-linejoin="round"/>
<path d="M25.2629 23.1667V28.4376" stroke="#018A83" stroke-width="3.11309" stroke-linecap="round" stroke-linejoin="round"/>
<path d="M25.2629 23.1667V28.4376" stroke="#018A83" stroke-width="3.11309" stroke-linecap="round" stroke-linejoin="round"/>
<path d="M23.4714 10.8124L21.8464 9.18738C20.8673 8.20821 20.8673 6.62498 21.8464 5.64581L23.4714 4.02075C24.4506 3.04159 26.0339 3.04159 27.0131 4.02075L28.6381 5.64581C29.6173 6.62498 29.6173 8.20821 28.6381 9.18738L27.0131 10.8124C26.0339 11.7916 24.4506 11.7916 23.4714 10.8124Z" stroke="#018A83" stroke-width="3.11309" stroke-linecap="round" stroke-linejoin="round"/>
<path d="M23.4714 10.8124L21.8464 9.18738C20.8673 8.20821 20.8673 6.62498 21.8464 5.64581L23.4714 4.02075C24.4506 3.04159 26.0339 3.04159 27.0131 4.02075L28.6381 5.64581C29.6173 6.62498 29.6173 8.20821 28.6381 9.18738L27.0131 10.8124C26.0339 11.7916 24.4506 11.7916 23.4714 10.8124Z" stroke="#018A83" stroke-width="3.11309" stroke-linecap="round" stroke-linejoin="round"/>
<path d="M40.7629 20.4377H43.0546C44.4296 20.4377 45.5546 21.5628 45.5546 22.9378V25.2294C45.5546 26.6044 44.4296 27.7295 43.0546 27.7295H40.7629C39.3879 27.7295 38.2629 26.6044 38.2629 25.2294V22.9378C38.2629 21.5628 39.3879 20.4377 40.7629 20.4377Z" stroke="#018A83" stroke-width="3.11309" stroke-linecap="round" stroke-linejoin="round"/>
<path d="M9.72112 20.4377H7.42944C6.05444 20.4377 4.92944 21.5628 4.92944 22.9378V25.2294C4.92944 26.6044 6.05444 27.7295 7.42944 27.7295H9.72112C11.0961 27.7295 12.2211 26.6044 12.2211 25.2294V22.9378C12.2211 21.5628 11.0961 20.4377 9.72112 20.4377Z" stroke="#018A83" stroke-width="3.11309" stroke-linecap="round" stroke-linejoin="round"/>
<path d="M38.8674 21.0416L27.8257 10" stroke="#018A83" stroke-width="3.11309" stroke-linecap="round" stroke-linejoin="round"/>
<path d="M11.6174 21.0416L22.6591 10" stroke="#018A83" stroke-width="3.11309" stroke-linecap="round" stroke-linejoin="round"/>
</svg>
