<svg width="40" height="39" viewBox="0 0 40 39" fill="none" xmlns="http://www.w3.org/2000/svg">
<path d="M15.4653 17.5435C15.3045 17.5274 15.1115 17.5274 14.9347 17.5435C11.1075 17.4149 8.06836 14.2792 8.06836 10.4199C8.06836 6.48026 11.2523 3.28027 15.208 3.28027C19.1477 3.28027 22.3477 6.48026 22.3477 10.4199C22.3316 14.2792 19.2924 17.4149 15.4653 17.5435Z" stroke="#018A83" stroke-width="2.41205" stroke-linecap="round" stroke-linejoin="round"/>
<path d="M27.1231 6.49658C30.2427 6.49658 32.7512 9.02119 32.7512 12.1247C32.7512 15.1639 30.3392 17.6402 27.3322 17.7528C27.2035 17.7367 27.0588 17.7367 26.9141 17.7528" stroke="#018A83" stroke-width="2.41205" stroke-linecap="round" stroke-linejoin="round"/>
<path d="M7.42541 23.4775C3.53398 26.0825 3.53398 30.3277 7.42541 32.9167C11.8475 35.8755 19.0997 35.8755 23.5218 32.9167C27.4133 30.3117 27.4133 26.0665 23.5218 23.4775C19.1158 20.5348 11.8636 20.5348 7.42541 23.4775Z" stroke="#018A83" stroke-width="2.41205" stroke-linecap="round" stroke-linejoin="round"/>
<path d="M30.2271 32.2253C31.3848 31.9841 32.4783 31.5178 33.3788 30.8264C35.8873 28.945 35.8873 25.8415 33.3788 23.9601C32.4944 23.2847 31.417 22.8344 30.2753 22.5771" stroke="#018A83" stroke-width="2.41205" stroke-linecap="round" stroke-linejoin="round"/>
</svg>
