<svg width="40" height="39" viewBox="0 0 40 39" fill="none" xmlns="http://www.w3.org/2000/svg">
<path d="M27.7643 30.5849H12.6488C11.9735 30.5849 11.2177 30.0542 10.9926 29.411L4.33531 10.79C3.38657 8.12065 4.49611 7.30055 6.77952 8.94074L13.0508 13.4272C14.0961 14.1508 15.286 13.7809 15.7363 12.6071L18.5664 5.06538C19.4669 2.65334 20.9624 2.65334 21.8629 5.06538L24.693 12.6071C25.1432 13.7809 26.3332 14.1508 27.3623 13.4272L33.2477 9.23019C35.7563 7.42919 36.9623 8.34577 35.9331 11.2563L29.4367 29.4432C29.1955 30.0542 28.4397 30.5849 27.7643 30.5849Z" stroke="#018A83" stroke-width="2.41205" stroke-linecap="round" stroke-linejoin="round"/>
<path d="M11.3618 35.4414H29.0502" stroke="#018A83" stroke-width="2.41205" stroke-linecap="round" stroke-linejoin="round"/>
<path d="M16.186 22.5771H24.2262" stroke="#018A83" stroke-width="2.41205" stroke-linecap="round" stroke-linejoin="round"/>
</svg>
