<svg width="39" height="39" viewBox="0 0 39 39" fill="none" xmlns="http://www.w3.org/2000/svg">
<path d="M19.6204 26.5972V29.974" stroke="#018A83" stroke-width="2.41205" stroke-linecap="round" stroke-linejoin="round"/>
<path d="M11.5803 35.4413H27.6606V33.8333C27.6606 32.0644 26.2134 30.6172 24.4446 30.6172H14.7964C13.0276 30.6172 11.5803 32.0644 11.5803 33.8333V35.4413V35.4413Z" stroke="#018A83" stroke-width="2.41205" stroke-miterlimit="10"/>
<path d="M9.97217 35.4414H29.2686" stroke="#018A83" stroke-width="2.41205" stroke-linecap="round" stroke-linejoin="round"/>
<path d="M19.3793 25.7927C13.1562 25.7927 8.12305 20.7596 8.12305 14.5365V9.7124C8.12305 6.15865 11.0014 3.28027 14.5552 3.28027H24.2034C27.7571 3.28027 30.6355 6.15865 30.6355 9.7124V14.5365C30.6355 20.7596 25.6024 25.7927 19.3793 25.7927Z" stroke="#018A83" stroke-width="2.41205" stroke-linecap="round" stroke-linejoin="round"/>
<path d="M8.87908 18.7982C7.67305 18.4123 6.61175 17.7047 5.77557 16.8686C4.32834 15.2605 3.36353 13.3309 3.36353 11.0797C3.36353 8.82841 5.13236 7.05957 7.38361 7.05957H8.42883C8.10722 7.79927 7.94642 8.61936 7.94642 9.47162V14.2957C7.94642 15.9037 8.2841 17.4153 8.87908 18.7982Z" stroke="#018A83" stroke-width="2.41205" stroke-linecap="round" stroke-linejoin="round"/>
<path d="M29.8799 18.7982C31.0859 18.4123 32.1472 17.7047 32.9834 16.8686C34.4306 15.2605 35.3954 13.3309 35.3954 11.0797C35.3954 8.82841 33.6266 7.05957 31.3754 7.05957H30.3301C30.6517 7.79927 30.8125 8.61936 30.8125 9.47162V14.2957C30.8125 15.9037 30.4749 17.4153 29.8799 18.7982Z" stroke="#018A83" stroke-width="2.41205" stroke-linecap="round" stroke-linejoin="round"/>
</svg>
