<svg width="39" height="39" viewBox="0 0 39 39" fill="none" xmlns="http://www.w3.org/2000/svg">
<path d="M14.7286 35.4409H24.3768C32.417 35.4409 35.6331 32.2249 35.6331 24.1847V14.5365C35.6331 6.49634 32.417 3.28027 24.3768 3.28027H14.7286C6.68848 3.28027 3.47241 6.49634 3.47241 14.5365V24.1847C3.47241 32.2249 6.68848 35.4409 14.7286 35.4409Z" stroke="#018A83" stroke-width="2.41205" stroke-linecap="round" stroke-linejoin="round"/>
<path d="M11.5127 13.3306C13.1207 14.9386 15.7418 14.9386 17.3659 13.3306" stroke="#018A83" stroke-width="2.41205" stroke-miterlimit="10" stroke-linecap="round" stroke-linejoin="round"/>
<path d="M21.7397 13.3306C23.3478 14.9386 25.9689 14.9386 27.593 13.3306" stroke="#018A83" stroke-width="2.41205" stroke-miterlimit="10" stroke-linecap="round" stroke-linejoin="round"/>
<path d="M13.7639 20.9688H25.3417C26.1457 20.9688 26.7889 21.612 26.7889 22.416C26.7889 26.42 23.5568 29.6521 19.5528 29.6521C15.5488 29.6521 12.3167 26.42 12.3167 22.416C12.3167 21.612 12.9599 20.9688 13.7639 20.9688Z" stroke="#018A83" stroke-width="2.41205" stroke-miterlimit="10" stroke-linecap="round" stroke-linejoin="round"/>
</svg>
